{"title":"Batman.vs.Robin.2015.BRRip.XviD.MP3-RARBG","uid":11791535,"size":659856696,"categoryP":"video","categoryS":"hd___movies","magnet":"?xt=urn:btih:34985ceab16a427c6bc04331e44d3346ff07dfe5&amp;dn=Batman.vs.Robin.2015.BRRip.XviD.MP3-RARBG&amp;tr=udp%3A%2F%2Ftracker.openbittorrent.com%3A80&amp;tr=udp%3A%2F%2Fopen.demonii.com%3A1337&amp;tr=udp%3A%2F%2Ftracker.coppersurfer.tk%3A6969&amp;tr=udp%3A%2F%2Fexodus.desync.com%3A6969","seeders":2,"leechers":0,"uploader":"makintos13","files":6,"time":1427963498,"description":"screen:\n &lt;a href=&quot;\nhttp://imgmak.com/Tw&quot; rel=&quot;nofollow&quot; target=&quot;_NEW&quot;&gt;\nhttp://imgmak.com/Tw&lt;/a&gt;\n &lt;a href=&quot;\nhttp://imgmak.com/TJ&quot; rel=&quot;nofollow&quot; target=&quot;_NEW&quot;&gt;\nhttp://imgmak.com/TJ&lt;/a&gt;\n &lt;a href=&quot;\nhttp://imgmak.com/TW&quot; rel=&quot;nofollow&quot; target=&quot;_NEW&quot;&gt;\nhttp://imgmak.com/TW&lt;/a&gt;\n\nVideo\n\nID    \n                                   : 0\nFormat                                   : MPEG-4 Visual\nFormat profile                           : Simple@L5\nFormat settings, BVOP                    : No\nFormat settings, QPel                    : No\nFormat settings, GMC                     : No warppoints\nFormat settings, Matrix                  : Default (H.263)\nCodec ID                                 : XVID\nCodec ID/Hint                            : XviD\nDuration                                 : 1h 19mn\nBit rate                                 : 797 Kbps\nWidth                                    : 720 pixels\nHeight                                   : 400 pixels\nDisplay aspect ratio                     : 16:9\nFrame rate                               : 23.976 fps\nColor space                              : YUV\nChroma subsampling                       : 4:2:0\nBit depth                                : 8 bits\nScan type                                : Progressive\nCompression mode                         : Lossy\nBits/(Pixel*Frame)                       : 0.115\nStream size                              : 456 MiB (80%)\n\nWriting library                          : Lavc56.19.100\n\nAudio\nID                                       : 1\nFormat                                   : MPEG Audio\nFormat version                           : Version 1\nFormat profile                           : Layer 3\nMode                                     : Joint stereo\nMode extension                           : MS Stereo\nCodec ID                                 : 55\nCodec ID/Hint                            : MP3\nDuration                                 : 1h 20mn\nBit rate mode                            : Constant\nBit rate                                 : 192 Kbps\nChannel(s)                               : 2 channels\nSampling rate                            : 48.0 KHz\nCompression mode                         : Lossy\nStream size                              : 110 MiB (19%)\nAlignment                                : Aligned on interleaves\nInterleave, duration                     : 24 ms (0.58 video frame)\nInterleave, preload duration             : 24 ms\nTitle","torrent":{"xt":"urn:btih:34985ceab16a427c6bc04331e44d3346ff07dfe5","amp;dn":"Batman.vs.Robin.2015.BRRip.XviD.MP3-RARBG","amp;tr":["udp%3A%2F%2Ftracker.openbittorrent.com%3A80","udp%3A%2F%2Fopen.demonii.com%3A1337","udp%3A%2F%2Ftracker.coppersurfer.tk%3A6969","udp%3A%2F%2Fexodus.desync.com%3A6969"],"infoHash":"34985ceab16a427c6bc04331e44d3346ff07dfe5","infoHashBuffer":{"type":"Buffer","data":[52,152,92,234,177,106,66,124,107,192,67,49,228,77,51,70,255,7,223,229]},"announce":[],"urlList":[]}}